<svg width="25" height="25" viewBox="0 0 25 25" fill="none" xmlns="http://www.w3.org/2000/svg">
<path d="M21.7474 12.9932C21.8731 13.06 22.1443 13.3171 22.2601 13.4273C23.8567 14.946 24.9273 16.1468 24.9966 18.4751C25.0431 20.0367 24.4772 21.5027 23.3884 22.6295C22.2617 23.8006 20.7156 24.4759 19.0907 24.5066C16.1853 24.5381 14.7745 22.721 12.8862 20.899C11.0933 19.1614 9.31017 17.4137 7.53692 15.6561C7.28852 15.4032 7.06328 15.2228 6.79102 14.9998C7.24157 14.5457 7.65241 14.1313 8.13361 13.7062C10.0901 15.4818 12.0357 17.6062 13.9704 19.4318C14.8695 20.2068 15.8402 21.4863 16.8569 22.0854C19.5676 23.6825 23.1113 21.8085 23.1355 18.6294C23.1516 16.5078 21.7941 15.5715 20.4901 14.2595C20.8946 13.7979 21.3388 13.4835 21.7474 12.9932Z" fill="white"/>
<path d="M18.7849 0.00429879C23.5477 -0.175613 26.7141 5.33011 23.9798 9.29527C23.437 10.0824 22.6956 10.7309 22.01 11.3968L19.5213 13.8126C18.1999 15.0992 16.6926 16.7114 15.3495 17.9059C14.925 17.5501 14.5543 17.0692 14.0956 16.6641C14.5713 16.0525 16.0085 14.7207 16.6255 14.1225C17.8589 12.8974 19.1001 11.6802 20.3489 10.4709C21.7945 9.06052 23.246 8.07045 23.1185 5.81077C23.0478 4.66596 22.5198 3.59764 21.6534 2.84597C20.8526 2.13285 19.7958 1.77661 18.7267 1.8593C17.2344 1.96872 16.4139 2.65798 15.4392 3.68508C15.1362 4.00441 14.8489 4.22788 14.5377 4.58373C14.0952 4.17317 13.6561 3.7589 13.2207 3.34084C13.6009 3.0296 14.1911 2.35365 14.5683 1.98613C15.8627 0.725184 17.0026 0.124153 18.7849 0.00429879Z" fill="white"/>
<path d="M6.13808 0.00538472C9.03495 -0.0707793 10.589 2.07981 12.4586 3.91362L18.2509 9.5598C17.9741 9.77642 17.3228 10.468 16.9523 10.7931C16.2433 10.1937 15.3662 9.29557 14.6835 8.63364C13.5283 7.53082 12.3843 6.41647 11.2515 5.29077C10.5553 4.59459 8.90909 2.86597 8.13332 2.40938C7.54497 2.05301 6.95219 1.86645 6.26224 1.84662C5.1207 1.81898 4.01574 2.25027 3.19478 3.04393C2.37604 3.8278 1.91127 4.91092 1.90729 6.04439C1.89347 8.11216 3.29286 9.02307 4.60735 10.3336C4.18921 10.7147 3.72926 11.1842 3.32005 11.5819C1.65707 10.0275 0.141862 8.82261 0.00908956 6.36202C-0.0782951 4.79035 0.467206 3.2492 1.52391 2.08249C2.80951 0.658713 4.27164 0.105089 6.13808 0.00538472Z" fill="white"/>
<path d="M10.4753 6.03711C10.8075 6.28777 11.426 6.97605 11.6983 7.30242C11.2022 7.9118 10.2447 8.81012 9.66414 9.3779L5.73796 13.1658L4.0397 14.8067C2.89118 15.9188 1.92238 16.7712 1.90497 18.5395C1.89571 19.607 2.31255 20.6341 3.06314 21.3932C3.97207 22.3195 4.89737 22.629 6.18441 22.6556C8.16041 22.6965 9.23478 21.2839 10.5131 19.9967C10.9756 20.4384 11.3551 20.8175 11.7873 21.2878L11.2279 21.8254C9.72329 23.455 8.35109 24.5457 6.0009 24.5032C4.34105 24.4642 2.76408 23.7699 1.61438 22.5721C-0.309123 20.5595 -0.633881 16.8828 1.33221 14.9465C4.31959 12.0043 7.42501 8.91217 10.4753 6.03711Z" fill="white"/>
</svg>
