<svg width="24" height="24" viewBox="0 0 24 24" fill="none" xmlns="http://www.w3.org/2000/svg">
<path d="M11.5167 2.29348C11.5605 2.205 11.6281 2.13052 11.712 2.07845C11.7959 2.02637 11.8927 1.99878 11.9914 1.99878C12.0901 1.99878 12.1869 2.02637 12.2708 2.07845C12.3546 2.13052 12.4223 2.205 12.4661 2.29348L14.7746 6.96944C14.9267 7.27721 15.1511 7.54348 15.4288 7.74539C15.7064 7.9473 16.0289 8.07883 16.3685 8.12869L21.5312 8.8842C21.629 8.89837 21.7209 8.93963 21.7965 9.00332C21.8721 9.067 21.9284 9.15057 21.9589 9.24457C21.9895 9.33856 21.9932 9.43924 21.9695 9.53521C21.9458 9.63118 21.8958 9.7186 21.825 9.78761L18.0914 13.4232C17.8452 13.6632 17.661 13.9594 17.5546 14.2863C17.4482 14.6132 17.4229 14.9611 17.4808 15.3L18.3622 20.4367C18.3795 20.5345 18.369 20.6351 18.3318 20.7272C18.2946 20.8192 18.2323 20.899 18.1519 20.9573C18.0716 21.0157 17.9765 21.0503 17.8774 21.0572C17.7784 21.0641 17.6794 21.043 17.5918 20.9963L12.9768 18.5699C12.6727 18.4102 12.3343 18.3268 11.9909 18.3268C11.6474 18.3268 11.3091 18.4102 11.005 18.5699L6.39103 20.9963C6.30342 21.0427 6.20455 21.0636 6.10567 21.0565C6.00679 21.0495 5.91186 21.0149 5.83169 20.9566C5.75152 20.8983 5.68932 20.8186 5.65217 20.7267C5.61502 20.6348 5.6044 20.5343 5.62154 20.4367L6.50196 15.301C6.56012 14.962 6.53492 14.6139 6.42855 14.2867C6.32217 13.9596 6.13781 13.6632 5.89136 13.4232L2.15779 9.78861C2.08643 9.71968 2.03586 9.6321 2.01185 9.53585C1.98783 9.43959 1.99133 9.33852 2.02196 9.24415C2.05258 9.14979 2.10909 9.06592 2.18505 9.0021C2.26101 8.93828 2.35336 8.89709 2.4516 8.8832L7.61324 8.12869C7.95328 8.07922 8.2762 7.94786 8.55421 7.74592C8.83223 7.54398 9.057 7.27751 9.2092 6.96944L11.5167 2.29348Z" fill="white" stroke="white" stroke-width="1.9987" stroke-linecap="round" stroke-linejoin="round"/>
</svg>
