<svg width="28" height="28" viewBox="0 0 28 28" fill="none" xmlns="http://www.w3.org/2000/svg">
<path d="M16.0836 1.90781C15.7847 1.04298 14.9647 0.410336 13.9851 0.40979H13.984C12.6723 0.40979 11.648 1.54341 11.7791 2.85077L11.8392 3.449C11.8865 3.92031 12.0529 4.37185 12.3228 4.76112C12.5927 5.15039 12.9572 5.4646 13.382 5.67418C13.5705 5.76699 13.7777 5.81531 13.9878 5.8154C14.1979 5.8155 14.4052 5.76737 14.5937 5.67472C15.0253 5.4622 15.3865 5.14643 15.6514 4.76291C15.8493 4.47759 15.9919 4.15777 16.0721 3.81995M18.9462 9.45048V9.16197C18.9462 8.07872 18.1707 7.15084 17.1047 6.95853L15.223 6.61904C14.7959 7.76403 13.1764 7.76403 12.7492 6.61904M12.7492 6.61904L10.8676 6.95853C9.80159 7.15084 9.02614 8.07872 9.02614 9.16197V9.42939M12.7492 6.61904L12.8889 5.47881M13.9862 16.2633V22.1227M15.2231 6.61904L15.0835 5.47881M8.87754 12.1364V15.8607C8.87754 16.2759 9.21232 16.6133 9.62742 16.6166C10.0472 16.62 10.3893 16.2806 10.3893 15.8607V11.2076C10.3893 10.3732 9.79198 9.65841 8.97079 9.5103L7.52134 9.24878M7.52134 9.24878C7.19229 10.1308 5.94476 10.1308 5.6157 9.24878L4.16625 9.5103C3.92388 9.55383 3.69368 9.64889 3.49121 9.78904M7.52134 9.24878L7.31543 8.10565M5.61581 9.24878L5.82172 8.10565M19.0948 12.1364V15.8607C19.0948 16.2759 18.7601 16.6133 18.345 16.6166C17.9252 16.62 17.5831 16.2806 17.5831 15.8607V11.2076C17.5831 10.3732 18.1804 9.65841 19.0016 9.5103L20.451 9.24878C20.7801 10.1308 22.0276 10.1308 22.3567 9.24878L23.8061 9.5103C24.0572 9.55537 24.2951 9.65571 24.5025 9.80406M20.451 9.24878L20.657 8.10565M22.3566 9.24878L22.1507 8.10565M24.5429 14.5651V6.82692C24.5429 6.21121 24.7925 5.65342 25.1963 5.25023C25.6 4.84649 26.1572 4.59682 26.773 4.59682C27.2089 4.59682 27.5624 4.9503 27.5624 5.38626V15.8801C27.5624 16.3002 27.4389 16.711 27.2078 17.0612L26.5954 17.9889M21.0267 27.5621C21.1099 26.6883 21.4063 25.8482 21.8899 25.1157L25.5421 19.5842M6.10314 8.1929C6.24827 8.26446 6.4079 8.30172 6.56972 8.30181C6.73154 8.30189 6.89121 8.2648 7.03642 8.19339C7.36351 8.03234 7.64413 7.79055 7.85178 7.49087C8.05943 7.1912 8.18724 6.84353 8.22315 6.48072L8.26893 6.01984C8.36902 5.01274 7.57865 4.1384 6.56768 4.13786C5.55676 4.13736 4.76726 5.01088 4.86833 6.01809L4.91461 6.47902C4.95103 6.84207 5.07924 7.18988 5.28717 7.48971C5.49509 7.78954 5.77589 8.03153 6.10314 8.1929ZM21.8692 8.1929C21.7241 8.26446 21.5645 8.30172 21.4027 8.30181C21.2408 8.30189 21.0812 8.2648 20.936 8.19339C20.6089 8.03234 20.3283 7.79055 20.1206 7.49087C19.913 7.1912 19.7851 6.84353 19.7492 6.48072L19.7035 6.01984C19.6034 5.01274 20.3937 4.1384 21.4047 4.13786C22.4156 4.13736 23.2051 5.01088 23.1041 6.01809L23.0578 6.47902C23.0214 6.84207 22.8931 7.18988 22.6852 7.48971C22.4773 7.78954 22.1965 8.03153 21.8692 8.1929Z" stroke="#4F46E5" stroke-width="0.819487" stroke-miterlimit="10" stroke-linecap="round" stroke-linejoin="round"/>
<path d="M19.6768 20.4769L24.1267 15.6354C24.3947 15.3439 24.5433 14.9623 24.543 14.5663V14.5652C24.5424 14.1571 24.3851 13.7495 24.0731 13.4414C23.4569 12.8328 22.4653 12.8339 21.8501 13.4441L18.8759 16.3932L17.0938 18.1605M15.7357 19.5067L15.5133 19.7274C15.0294 20.207 14.6454 20.7778 14.3835 21.4068C13.9709 22.3965 13.877 23.4901 14.1147 24.5356C14.2002 24.911 14.3274 25.2756 14.4939 25.6228C14.7849 26.2295 14.9472 26.8898 14.9708 27.5622M0.410156 7.93934V5.38636C0.410156 4.9504 0.763628 4.59692 1.1996 4.59692C1.8153 4.59692 2.37256 4.84659 2.77629 5.25033C3.18002 5.65352 3.42969 6.21131 3.42969 6.82702V14.5652M0.410156 9.85148V15.8802C0.410156 16.3003 0.533626 16.7111 0.764721 17.0613L6.08265 25.1158C6.56626 25.8483 6.86266 26.6884 6.94584 27.5622" stroke="#4F46E5" stroke-width="0.819487" stroke-miterlimit="10" stroke-linecap="round" stroke-linejoin="round"/>
<path d="M13.0023 27.5622C13.0257 26.8898 13.188 26.2295 13.479 25.6228C13.8131 24.9264 13.9865 24.1638 13.9865 23.3913C13.9865 22.7101 13.8516 22.0355 13.5896 21.4067C13.3275 20.7778 12.9435 20.2071 12.4598 19.7274L6.12263 13.4438C5.50758 12.8339 4.51622 12.8328 3.8998 13.4413C3.29431 14.0389 3.27071 15.0087 3.84642 15.6351L8.29602 20.477M13.9865 9.18293L13.8282 9.02461C13.4075 8.60394 12.7256 8.60394 12.3049 9.02461C11.8842 9.44528 11.8842 10.1273 12.3049 10.5479L13.9865 12.2296L15.6682 10.5479C16.0889 10.1273 16.0889 9.44528 15.6682 9.02461C15.2476 8.60394 14.5656 8.60394 14.1449 9.02461L13.9865 9.18293Z" stroke="#4F46E5" stroke-width="0.819487" stroke-miterlimit="10" stroke-linecap="round" stroke-linejoin="round"/>
</svg>
