<svg width="17" height="29" viewBox="0 0 17 29" fill="none" xmlns="http://www.w3.org/2000/svg">
<path d="M12.2404 0C12.5202 0.0139273 12.7196 0.0614262 12.9446 0.242798C13.1622 0.416358 13.3005 0.670407 13.3281 0.947355C13.3789 1.50026 12.9868 1.81041 12.6363 2.16737C12.3306 2.47883 12.0183 2.78519 11.7096 3.0938L8.80715 5.99438C8.33888 6.4623 7.6267 7.13062 7.21296 7.61604C7.039 7.48888 6.55922 6.99021 6.38809 6.81896L4.77466 5.203C4.18653 4.62419 2.83236 3.63477 3.74905 2.73589C4.61213 1.88955 5.36863 2.85282 5.96662 3.45542C6.37518 3.86834 6.78684 4.27818 7.20153 4.68495C7.21262 4.66933 7.22404 4.65397 7.23578 4.63883C7.38167 4.45137 7.80399 4.04851 7.99317 3.85908L9.44261 2.40841L10.8576 0.993728C11.2723 0.579257 11.6382 0.0785368 12.2404 0Z" fill="#4F46E5"/>
<path d="M8.15439 9.5636C9.08917 9.49164 10.4155 9.82724 11.1676 10.4054C11.7986 10.8663 12.2595 11.6707 12.3431 12.4557C12.6013 14.8806 11.4985 18.5104 8.70661 18.9007C7.73999 18.9675 7.14072 18.7971 6.39673 18.1862C5.19479 17.1752 4.5921 15.5481 4.43202 14.0351C4.1508 11.3776 5.41349 9.75799 8.15439 9.5636Z" fill="#4F46E5"/>
<path d="M5.40805 20.8544C6.29969 20.7977 6.81221 21.771 7.26101 22.4053C7.63252 22.9348 8.01423 23.457 8.40595 23.9718C8.99972 23.087 9.7284 22.1142 10.3848 21.2675C11.0903 20.3575 12.8272 21.3079 13.6568 21.5933C14.1669 21.7687 14.9744 22.0366 15.4328 22.2668C15.6908 22.3949 15.927 22.5629 16.1327 22.7646C16.6659 23.2971 16.7915 23.8546 16.7662 24.591C16.7238 25.825 17.0475 27.4157 15.7243 28.1172C15.3377 28.3221 14.938 28.3127 14.515 28.3113L5.70364 28.3096L3.13086 28.3121C1.87697 28.3133 0.588744 28.4754 0.104436 26.9148C-0.0822018 26.2335 0.0533098 25.3891 0.00776878 24.7082C-0.122755 22.7567 1.41364 22.2126 2.94391 21.6824C3.77872 21.3932 4.52439 21.0284 5.40805 20.8544Z" fill="#4F46E5"/>
</svg>
