<svg width="25" height="25" viewBox="0 0 25 25" fill="none" xmlns="http://www.w3.org/2000/svg">
<path d="M20 12.625V3.75C20 3.41848 19.8683 3.10054 19.6339 2.86612C19.3995 2.6317 19.0815 2.5 18.75 2.5H17.5V1.25C17.5 0.91848 17.3683 0.600537 17.1339 0.366117C16.8995 0.131696 16.5815 0 16.25 0L4.58333 0C4.57458 0 4.56667 0.00458333 4.55792 0.005C4.50705 0.00805069 4.45718 0.0204819 4.41083 0.0416667C4.3655 0.0619466 4.32415 0.0901683 4.28875 0.125L0.122083 4.29167C0.0872517 4.32707 0.0590299 4.36841 0.03875 4.41375C0.0329167 4.42625 0.0295833 4.43958 0.025 4.4525C0.0130373 4.48736 0.00575151 4.52364 0.00333333 4.56042C0.00458333 4.56667 0 4.57458 0 4.58333V21.25C0 21.5815 0.131696 21.8995 0.366117 22.1339C0.600537 22.3683 0.91848 22.5 1.25 22.5H2.5V23.75C2.5 24.0815 2.6317 24.3995 2.86612 24.6339C3.10054 24.8683 3.41848 25 3.75 25H18.75C21.9608 25.0033 24.6521 22.5729 24.975 19.3779C25.2971 16.1833 23.1463 13.2642 20 12.625ZM18.75 3.33333C18.8605 3.33333 18.9665 3.37723 19.0446 3.45537C19.1228 3.53351 19.1667 3.63949 19.1667 3.75V12.5213C19.0283 12.5121 18.8908 12.5 18.75 12.5C18.33 12.5 17.9113 12.5417 17.5 12.625V3.33333H18.75ZM4.16667 1.4225V3.75C4.16667 3.86051 4.12277 3.96649 4.04463 4.04463C3.96649 4.12277 3.86051 4.16667 3.75 4.16667H1.4225L4.16667 1.4225ZM0.833333 21.25V5H3.75C4.08152 5 4.39946 4.8683 4.63388 4.63388C4.8683 4.39946 5 4.08152 5 3.75V0.833333H16.25C16.3605 0.833333 16.4665 0.877232 16.5446 0.955372C16.6228 1.03351 16.6667 1.13949 16.6667 1.25V12.8646C15.8203 13.1622 15.048 13.6389 14.4028 14.2623C13.7575 14.8857 13.2544 15.641 12.9278 16.4766C12.6011 17.3122 12.4587 18.2085 12.5102 19.1042C12.5618 19.9999 12.806 20.874 13.2263 21.6667H1.25C1.13949 21.6667 1.03351 21.6228 0.955372 21.5446C0.877232 21.4665 0.833333 21.3605 0.833333 21.25ZM3.75 24.1667C3.63949 24.1667 3.53351 24.1228 3.45537 24.0446C3.37723 23.9665 3.33333 23.8605 3.33333 23.75V22.5H13.7617C14.2709 23.1766 14.9115 23.7435 15.645 24.1667H3.75ZM18.75 24.1667C15.7583 24.1667 13.3333 21.7417 13.3333 18.75C13.3333 15.7583 15.7583 13.3333 18.75 13.3333C21.7417 13.3333 24.1667 15.7583 24.1667 18.75C24.1633 21.74 21.74 24.1633 18.75 24.1667Z" fill="#4F46E5"/>
<path d="M21.5892 15.4921C21.5173 15.3423 21.404 15.2163 21.2626 15.129C21.1212 15.0418 20.9578 14.997 20.7917 15H17.125C16.8985 14.9947 16.6792 15.0795 16.5152 15.2357C16.3512 15.392 16.2558 15.6069 16.25 15.8333V22.5C16.25 22.6105 16.2939 22.7165 16.372 22.7946C16.4502 22.8728 16.5562 22.9167 16.6667 22.9167C16.7772 22.9167 16.8832 22.8728 16.9613 22.7946C17.0394 22.7165 17.0833 22.6105 17.0833 22.5V19.1667H20.7917C20.9579 19.1698 21.1216 19.1251 21.2631 19.0379C21.4046 18.9506 21.5181 18.8245 21.59 18.6746C21.6557 18.5363 21.6802 18.3821 21.6607 18.2303C21.6412 18.0785 21.5785 17.9355 21.48 17.8183L20.8608 17.0987L21.48 16.3487C21.5784 16.2314 21.6411 16.0883 21.6604 15.9364C21.6798 15.7845 21.655 15.6303 21.5892 15.4921ZM20.7917 18.3333H17.0833L17.0796 15.8487C17.0921 15.8375 17.1087 15.8321 17.125 15.8333H20.7917C20.8054 15.8333 20.815 15.8354 20.8225 15.8354L20.2175 16.5687C20.0966 16.713 20.0304 16.8953 20.0304 17.0835C20.0304 17.2718 20.0966 17.454 20.2175 17.5983L20.8363 18.3187C20.8333 18.3229 20.8208 18.3333 20.7917 18.3333Z" fill="#4F46E5"/>
<path fill-rule="evenodd" clip-rule="evenodd" d="M2.91667 7.91671H14.5833C14.6938 7.91671 14.7998 7.87281 14.878 7.79467C14.9561 7.71653 15 7.61055 15 7.50004C15 7.38953 14.9561 7.28355 14.878 7.20541C14.7998 7.12727 14.6938 7.08337 14.5833 7.08337H2.91667C2.80616 7.08337 2.70018 7.12727 2.62204 7.20541C2.5439 7.28355 2.5 7.38953 2.5 7.50004C2.5 7.61055 2.5439 7.71653 2.62204 7.79467C2.70018 7.87281 2.80616 7.91671 2.91667 7.91671ZM2.91667 16.25H11.25C11.3605 16.25 11.4665 16.2061 11.5446 16.128C11.6228 16.0499 11.6667 15.9439 11.6667 15.8334C11.6667 15.7229 11.6228 15.6169 11.5446 15.5387C11.4665 15.4606 11.3605 15.4167 11.25 15.4167H2.91667C2.80616 15.4167 2.70018 15.4606 2.62204 15.5387C2.5439 15.6169 2.5 15.7229 2.5 15.8334C2.5 15.9439 2.5439 16.0499 2.62204 16.128C2.70018 16.2061 2.80616 16.25 2.91667 16.25ZM14.5833 9.16671H12.5C12.3895 9.16671 12.2835 9.21061 12.2054 9.28875C12.1272 9.36689 12.0833 9.47287 12.0833 9.58337C12.0833 9.69388 12.1272 9.79986 12.2054 9.878C12.2835 9.95614 12.3895 10 12.5 10H14.5833C14.6938 10 14.7998 9.95614 14.878 9.878C14.9561 9.79986 15 9.69388 15 9.58337C15 9.47287 14.9561 9.36689 14.878 9.28875C14.7998 9.21061 14.6938 9.16671 14.5833 9.16671ZM2.91667 10H10.4167C10.5272 10 10.6332 9.95614 10.7113 9.878C10.7894 9.79986 10.8333 9.69388 10.8333 9.58337C10.8333 9.47287 10.7894 9.36689 10.7113 9.28875C10.6332 9.21061 10.5272 9.16671 10.4167 9.16671H2.91667C2.80616 9.16671 2.70018 9.21061 2.62204 9.28875C2.5439 9.36689 2.5 9.47287 2.5 9.58337C2.5 9.69388 2.5439 9.79986 2.62204 9.878C2.70018 9.95614 2.80616 10 2.91667 10ZM7.91667 17.5H7.5C7.38949 17.5 7.28351 17.5439 7.20537 17.6221C7.12723 17.7002 7.08333 17.8062 7.08333 17.9167C7.08333 18.0272 7.12723 18.1332 7.20537 18.2113C7.28351 18.2895 7.38949 18.3334 7.5 18.3334H7.91667C8.02717 18.3334 8.13315 18.2895 8.21129 18.2113C8.28943 18.1332 8.33333 18.0272 8.33333 17.9167C8.33333 17.8062 8.28943 17.7002 8.21129 17.6221C8.13315 17.5439 8.02717 17.5 7.91667 17.5ZM5.41667 18.3334C5.52717 18.3334 5.63315 18.2895 5.71129 18.2113C5.78943 18.1332 5.83333 18.0272 5.83333 17.9167C5.83333 17.8062 5.78943 17.7002 5.71129 17.6221C5.63315 17.5439 5.52717 17.5 5.41667 17.5H2.91667C2.80616 17.5 2.70018 17.5439 2.62204 17.6221C2.5439 17.7002 2.5 17.8062 2.5 17.9167C2.5 18.0272 2.5439 18.1332 2.62204 18.2113C2.70018 18.2895 2.80616 18.3334 2.91667 18.3334H5.41667ZM2.91667 12.0834H5C5.11051 12.0834 5.21649 12.0395 5.29463 11.9613C5.37277 11.8832 5.41667 11.7772 5.41667 11.6667C5.41667 11.5562 5.37277 11.4502 5.29463 11.3721C5.21649 11.2939 5.11051 11.25 5 11.25H2.91667C2.80616 11.25 2.70018 11.2939 2.62204 11.3721C2.5439 11.4502 2.5 11.5562 2.5 11.6667C2.5 11.7772 2.5439 11.8832 2.62204 11.9613C2.70018 12.0395 2.80616 12.0834 2.91667 12.0834ZM14.5833 11.25H7.08333C6.97283 11.25 6.86685 11.2939 6.7887 11.3721C6.71057 11.4502 6.66667 11.5562 6.66667 11.6667C6.66667 11.7772 6.71057 11.8832 6.7887 11.9613C6.86685 12.0395 6.97283 12.0834 7.08333 12.0834H14.5833C14.6938 12.0834 14.7998 12.0395 14.878 11.9613C14.9561 11.8832 15 11.7772 15 11.6667C15 11.5562 14.9561 11.4502 14.878 11.3721C14.7998 11.2939 14.6938 11.25 14.5833 11.25ZM2.91667 14.1667H4.16667C4.27717 14.1667 4.38315 14.1228 4.46129 14.0447C4.53943 13.9665 4.58333 13.8605 4.58333 13.75C4.58333 13.6395 4.53943 13.5336 4.46129 13.4554C4.38315 13.3773 4.27717 13.3334 4.16667 13.3334H2.91667C2.80616 13.3334 2.70018 13.3773 2.62204 13.4554C2.5439 13.5336 2.5 13.6395 2.5 13.75C2.5 13.8605 2.5439 13.9665 2.62204 14.0447C2.70018 14.1228 2.80616 14.1667 2.91667 14.1667ZM12.9167 13.3334H6.25C6.13949 13.3334 6.03351 13.3773 5.95537 13.4554C5.87723 13.5336 5.83333 13.6395 5.83333 13.75C5.83333 13.8605 5.87723 13.9665 5.95537 14.0447C6.03351 14.1228 6.13949 14.1667 6.25 14.1667H12.9167C13.0272 14.1667 13.1332 14.1228 13.2113 14.0447C13.2894 13.9665 13.3333 13.8605 13.3333 13.75C13.3333 13.6395 13.2894 13.5336 13.2113 13.4554C13.1332 13.3773 13.0272 13.3334 12.9167 13.3334Z" fill="#4F46E5"/>
</svg>
