<svg width="24" height="22" viewBox="0 0 24 22" fill="none" xmlns="http://www.w3.org/2000/svg">
<path d="M20.0542 0H3.19654C1.43402 0 0 1.43373 0 3.19654V13.5131C0 15.2719 1.42774 16.7034 3.1852 16.7096V21.3911L9.91305 16.7096H20.0542C21.8167 16.7096 23.2507 15.2756 23.2507 13.5131V3.19654C23.2507 1.43373 21.8167 0 20.0542 0ZM21.8884 13.513C21.8884 14.5243 21.0656 15.3473 20.0542 15.3473H9.48564L4.54755 18.7835V15.3473H3.19654C2.18513 15.3473 1.36235 14.5243 1.36235 13.5131V3.19654C1.36235 2.18502 2.18513 1.36235 3.19654 1.36235H20.0542C21.0656 1.36235 21.8884 2.18502 21.8884 3.19654V13.513Z" fill="#4F46E5"/>
<path d="M6.22266 4.81372H17.0275V6.17607H6.22266V4.81372ZM6.22266 7.72006H17.0275V9.08241H6.22266V7.72006ZM6.22266 10.6264H17.0275V11.9887H6.22266V10.6264Z" fill="#4F46E5"/>
</svg>
