<svg width="27" height="27" viewBox="0 0 27 27" fill="none" xmlns="http://www.w3.org/2000/svg">
<path d="M15.3487 12.8045C15.3866 12.8785 15.4441 12.9406 15.515 12.9839C15.5859 13.0273 15.6674 13.0502 15.7505 13.0502C15.8214 13.0502 15.8913 13.0334 15.9544 13.0012C15.9809 12.9877 18.6296 11.6422 19.936 11.2295C20.1727 11.1544 20.3041 10.9015 20.2289 10.6648C20.2112 10.6084 20.1825 10.556 20.1445 10.5107C20.1065 10.4654 20.0599 10.428 20.0075 10.4007C19.955 10.3735 19.8977 10.3568 19.8388 10.3517C19.7799 10.3465 19.7206 10.3531 19.6642 10.3709C18.2881 10.8061 15.6574 12.1426 15.5458 12.1993C15.3244 12.3118 15.2362 12.5827 15.3487 12.8045ZM15.7505 7.6503C15.8214 7.65026 15.8913 7.63346 15.9544 7.60126C15.9809 7.58776 18.6296 6.24225 19.936 5.8296C20.1727 5.75446 20.3041 5.50155 20.2289 5.26488C20.2112 5.20847 20.1825 5.15612 20.1445 5.11081C20.1065 5.0655 20.0599 5.02814 20.0075 5.00084C19.955 4.97355 19.8977 4.95687 19.8388 4.95176C19.7799 4.94664 19.7206 4.9532 19.6642 4.97104C18.2881 5.4062 15.6574 6.74269 15.5458 6.79938C15.3244 6.91186 15.2362 7.18276 15.3487 7.40461C15.3866 7.47858 15.4441 7.54065 15.515 7.584C15.5859 7.62735 15.6674 7.65029 15.7505 7.6503Z" fill="#4F46E5"/>
<path d="M26.5498 6.75022C26.4907 6.7502 26.4322 6.76183 26.3776 6.78443C26.323 6.80704 26.2734 6.84018 26.2316 6.88197C26.1898 6.92376 26.1566 6.97337 26.134 7.02798C26.1114 7.08258 26.0998 7.1411 26.0998 7.2002V24.7501C26.0998 25.4944 25.4941 26.1001 24.7498 26.1001H13.9499V25.0646C14.606 24.8351 16.3151 24.3001 17.9999 24.3001C21.9198 24.3001 24.5816 25.1681 24.6081 25.1771C24.6757 25.1993 24.7477 25.2053 24.818 25.1945C24.8884 25.1837 24.9552 25.1565 25.0131 25.115C25.0709 25.0733 25.118 25.0185 25.1505 24.955C25.1829 24.8916 25.1999 24.8213 25.1998 24.75V4.95025C25.1999 4.84785 25.1651 4.74847 25.101 4.66859C25.0369 4.58871 24.9474 4.53312 24.8475 4.51103C24.8475 4.51103 24.4947 4.4323 23.8916 4.32156C23.6482 4.27658 23.4129 4.43858 23.3678 4.68247C23.3229 4.92726 23.4844 5.16172 23.7288 5.2067C23.9194 5.24166 24.1097 5.27812 24.2998 5.31607V24.152C23.2801 23.8847 21.0157 23.4001 17.9998 23.4001C16.0392 23.4001 14.1132 24.044 13.5174 24.2623C12.9877 24.0283 11.3867 23.4001 9.44987 23.4001C6.35028 23.4001 3.797 23.9113 2.69993 24.1709V5.29851C3.59857 5.07755 6.25267 4.50022 9.44987 4.50022C11.0906 4.50022 12.4977 5.01095 13.0499 5.24182V22.9501C13.0499 23.0297 13.0711 23.1079 13.1112 23.1767C13.1513 23.2455 13.209 23.3024 13.2783 23.3416C13.3476 23.3809 13.4261 23.401 13.5058 23.3999C13.5854 23.3989 13.6633 23.3767 13.7316 23.3357C13.7762 23.3092 18.2347 20.6461 22.192 19.3272C22.2816 19.2973 22.3596 19.24 22.4148 19.1633C22.4701 19.0867 22.4998 18.9946 22.4998 18.9001V0.450253C22.4998 0.377513 22.4821 0.305861 22.4483 0.24144C22.4146 0.17702 22.3657 0.121753 22.3058 0.0803769C22.2461 0.0388662 22.1772 0.0124726 22.105 0.00346203C22.0328 -0.00554854 21.9595 0.00309303 21.8914 0.0286449C18.291 1.37906 14.6479 3.64614 14.6114 3.66866C14.4007 3.80049 14.3364 4.07814 14.4682 4.28876C14.5997 4.49938 14.8773 4.56371 15.0883 4.43188C15.1216 4.41073 18.291 2.43885 21.5998 1.10821V18.578C18.5281 19.6454 15.321 21.3882 13.9498 22.1685V4.95025C13.9498 4.86664 13.9265 4.78468 13.8826 4.71356C13.8386 4.64243 13.7757 4.58494 13.701 4.54752C13.6236 4.50929 11.7795 3.60026 9.44987 3.60026C5.38372 3.60026 2.25759 4.48002 2.12618 4.51778C2.03219 4.54461 1.94949 4.60134 1.89062 4.67938C1.83175 4.75741 1.79991 4.8525 1.79992 4.95025V24.7501C1.80004 24.8197 1.81623 24.8883 1.84722 24.9506C1.87821 25.0129 1.92317 25.0672 1.97858 25.1092C2.05672 25.1683 2.152 25.2002 2.24995 25.2001C2.29134 25.2001 2.33274 25.1943 2.37324 25.1826C2.4043 25.174 5.51603 24.3001 9.44987 24.3001C11.0951 24.3001 12.5009 24.8122 13.0499 25.0422V26.1001H2.24995C1.50566 26.1001 0.899958 25.4944 0.899958 24.7501V7.20025C0.899958 6.95188 0.698356 6.75027 0.449979 6.75027C0.201602 6.75027 0 6.95188 0 7.20025V24.7501C0 25.9907 1.00933 27.0001 2.25 27.0001H24.7498C25.9905 27.0001 26.9998 25.9908 26.9998 24.7501V7.20025C26.9999 7.14115 26.9882 7.08262 26.9656 7.02802C26.943 6.97341 26.9099 6.92379 26.8681 6.882C26.8263 6.84021 26.7767 6.80706 26.722 6.78445C26.6674 6.76184 26.6089 6.75021 26.5498 6.75022Z" fill="#4F46E5"/>
<path d="M15.3485 10.1044C15.3864 10.1784 15.4439 10.2405 15.5148 10.2838C15.5857 10.3272 15.6672 10.3501 15.7503 10.3501C15.8212 10.3501 15.891 10.3333 15.9542 10.3011C15.9807 10.2876 18.6294 8.94208 19.9358 8.52943C20.1725 8.45429 20.3038 8.20138 20.2287 7.96471C20.211 7.9083 20.1823 7.85595 20.1443 7.81064C20.1063 7.76533 20.0597 7.72797 20.0073 7.70067C19.9548 7.67338 19.8975 7.6567 19.8386 7.65159C19.7797 7.64647 19.7203 7.65303 19.664 7.67087C18.2879 8.10603 15.6572 9.44252 15.5456 9.49921C15.3242 9.61169 15.236 9.88264 15.3485 10.1044ZM15.3485 15.5044C15.3864 15.5784 15.4439 15.6405 15.5148 15.6838C15.5857 15.7272 15.6672 15.7501 15.7503 15.7501C15.8212 15.7501 15.891 15.7332 15.9542 15.701C15.9807 15.6875 18.6294 14.342 19.9358 13.9294C20.1725 13.8542 20.3038 13.6013 20.2287 13.3647C20.211 13.3083 20.1823 13.2559 20.1443 13.2106C20.1063 13.1653 20.0597 13.1279 20.0073 13.1006C19.9548 13.0733 19.8975 13.0567 19.8386 13.0515C19.7797 13.0464 19.7203 13.053 19.664 13.0708C18.2879 13.506 15.6572 14.8425 15.5456 14.8992C15.3242 15.0117 15.236 15.2826 15.3485 15.5044ZM10.9025 8.3513C8.12382 7.69924 4.96617 8.52996 4.83343 8.5655C4.77566 8.58018 4.72137 8.60618 4.67373 8.64201C4.62609 8.67783 4.58603 8.72276 4.5559 8.77419C4.52576 8.82562 4.50614 8.88253 4.49818 8.9416C4.49021 9.00068 4.49406 9.06074 4.5095 9.11832C4.52494 9.17589 4.55166 9.22983 4.58812 9.27699C4.62457 9.32415 4.67003 9.36361 4.72186 9.39306C4.77368 9.42251 4.83084 9.44137 4.89002 9.44855C4.94919 9.45573 5.00921 9.45108 5.06657 9.43488C5.09673 9.42633 8.1369 8.62668 10.6974 9.22742C10.9381 9.28369 11.1816 9.13382 11.2383 8.89172C11.2949 8.65009 11.1446 8.40799 10.9025 8.3513ZM10.9025 11.0513C8.12382 10.3997 4.96617 11.2299 4.83343 11.2655C4.77566 11.2802 4.72137 11.3062 4.67373 11.342C4.62609 11.3778 4.58603 11.4227 4.5559 11.4742C4.52576 11.5256 4.50614 11.5825 4.49818 11.6416C4.49021 11.7007 4.49406 11.7607 4.5095 11.8183C4.52494 11.8759 4.55166 11.9298 4.58812 11.977C4.62457 12.0241 4.67003 12.0636 4.72186 12.093C4.77368 12.1225 4.83084 12.1413 4.89002 12.1485C4.94919 12.1557 5.00921 12.1511 5.06657 12.1349C5.09673 12.1263 8.1369 11.3267 10.6974 11.9274C10.9381 11.9837 11.1816 11.8338 11.2383 11.5917C11.2949 11.3501 11.1446 11.108 10.9025 11.0513ZM15.3485 18.2044C15.3864 18.2783 15.4439 18.3404 15.5148 18.3838C15.5857 18.4271 15.6672 18.4501 15.7503 18.4501C15.8212 18.45 15.891 18.4332 15.9542 18.401C15.9807 18.3875 18.6294 17.042 19.9358 16.6294C20.1725 16.5542 20.3038 16.3013 20.2287 16.0646C20.211 16.0082 20.1823 15.9559 20.1443 15.9106C20.1063 15.8653 20.0597 15.8279 20.0073 15.8006C19.9548 15.7733 19.8975 15.7566 19.8386 15.7515C19.7797 15.7464 19.7203 15.753 19.664 15.7708C18.2879 16.206 15.6572 17.5425 15.5456 17.5991C15.3242 17.7116 15.236 17.9826 15.3485 18.2044ZM10.9025 13.7513C8.12382 13.0997 4.96617 13.9294 4.83343 13.9655C4.71816 13.9964 4.61989 14.0718 4.56023 14.1752C4.50057 14.2786 4.48441 14.4014 4.51529 14.5167C4.54092 14.6123 4.59734 14.6969 4.67584 14.7572C4.75434 14.8176 4.85053 14.8504 4.94955 14.8506C4.98826 14.8506 5.02739 14.8452 5.06657 14.8348C5.09673 14.8263 8.1369 14.0266 10.6974 14.6274C10.9381 14.6836 11.1816 14.5338 11.2383 14.2917C11.2949 14.05 11.1446 13.8079 10.9025 13.7513ZM10.9025 19.1512C8.12382 18.4992 4.96617 19.3299 4.83343 19.3654C4.71816 19.3964 4.61989 19.4718 4.56023 19.5752C4.50057 19.6785 4.48441 19.8014 4.51529 19.9166C4.54092 20.0123 4.59734 20.0968 4.67584 20.1572C4.75434 20.2175 4.85053 20.2504 4.94955 20.2506C4.98826 20.2506 5.02739 20.2452 5.06657 20.2348C5.09673 20.2262 8.1369 19.4266 10.6974 20.0273C10.9381 20.0831 11.1816 19.9337 11.2383 19.6916C11.2949 19.45 11.1446 19.2079 10.9025 19.1512ZM10.9025 16.4512C8.12382 15.7992 4.96617 16.6294 4.83343 16.6654C4.71816 16.6964 4.61989 16.7718 4.56023 16.8752C4.50057 16.9786 4.48441 17.1014 4.51529 17.2167C4.54092 17.3123 4.59734 17.3969 4.67584 17.4572C4.75434 17.5176 4.85053 17.5504 4.94955 17.5506C4.98826 17.5506 5.02739 17.5452 5.06657 17.5348C5.09673 17.5263 8.1369 16.7266 10.6974 17.3274C10.9381 17.3836 11.1816 17.2338 11.2383 16.9917C11.2949 16.75 11.1446 16.5079 10.9025 16.4512Z" fill="#4F46E5"/>
</svg>
